<?xml version="1.0" encoding="UTF-8"?>
<svg id="Layer_1" xmlns="http://www.w3.org/2000/svg" xmlns:xlink="http://www.w3.org/1999/xlink" version="1.1" viewBox="0 0 288 288">
  <!-- Generator: Adobe Illustrator 29.7.1, SVG Export Plug-In . SVG Version: 2.1.1 Build 8)  -->
  <defs>
    <style>
      .st0 {
        fill: #f9ca10;
      }

      .st1 {
        fill: #ef5123;
      }

      .st2 {
        fill: url(#linear-gradient);
      }

      .st3 {
        fill: #6cc9cc;
      }

      .st4 {
        fill: #02253c;
      }
    </style>
    <linearGradient id="linear-gradient" x1="114.57" y1="110.02" x2="210.11" y2="202.6" gradientUnits="userSpaceOnUse">
      <stop offset="0" stop-color="#6cc9cc"/>
      <stop offset=".98" stop-color="#468fcd"/>
    </linearGradient>
  </defs>
  <path class="st4" d="M252.74,149.06c3.77-11.82,1.02-25.16-2.25-36.74-2.72-9.6-6.34-18.66-14.54-24.86-16.67-12.61-39.32-11.98-58.76-17.02-.67-.17-1.22.02-1.6.39-2.76-4.16-6.82-7.44-12.02-9.04-1.47-.89-3.04-1.57-4.68-2.05.61-2.04,1.33-4.09,2.29-6.14,3.14-6.67,7.31-13.18,12.49-18.43,4.57-4.64,9.66-8.99,15.98-10.86,1.69-.5,4.36-.93,4.82-3.06.31-1.44-.34-3.04-1.93-3.42-4.75-1.12-9.75,3.42-13.27,6.08-5.22,3.95-9.31,9.09-13.29,14.23-3.9,5.04-9.27,12.92-11.77,20.78-7.62-.53-15.8,2.56-21.05,8.08-2.74,2.88-4.94,6.34-6.46,10.09-.11.03-.23.07-.35.13-20.61,10.12-39.63,22.99-56.79,38.24-8.71,7.75-16.78,16.2-24.31,25.1-6.15,7.27-11.43,14.88-13.76,24.02-.91,1.13-.78,3.24-.87,4.47-.06.73.57,1.55,1.29,1.69.47.06.87.21,1.24.39.17.35.5.62.99.74.19.23.36.47.51.75.82,1.02,1.98.62,2.56-.23,1.61.22,3.22.37,4.82.44-1.09,6.73.82,13.13,1.61,19.89.91,7.78,1.03,15.59,1.34,23.4.39,9.71,1.41,19.42,2.08,29.11.31,4.53.72,9.07,1.11,13.59.19,2.29.43,4.57.68,6.85.07.73.45,1.33.77,1.96-.69.73-.73,2.03.53,2.27,8.15,1.53,16.16-1.66,23.74-4.42,9.86-3.59,20.04-4.49,30.41-5.59,9.52-1.01,18.93-3.06,28.27-5.16,9.31-2.1,17.45-6.48,26.43-9.48,9.05-3.04,18.82-1.97,27.85-5.23,6.86-2.48,12.49-7.5,19.02-10.65,12.25-5.9,25.06-11.63,38.25-14.92.65-.16.99-.6,1.09-1.09,2.24-5.86,2.27-13.53,2.11-19.74-.27-10.41-2.26-20.52-1.96-31.02,0-.19-.03-.37-.07-.53,4.08-2.17,6.18-8.95,7.47-13.02ZM134.69,70.59c4.06-5.18,11.62-8.47,18.63-8.27-.55,2.69-.69,5.32-.22,7.78-2.21-.21-4.14-.75-6.34-2.13-.23-.15-.49-.03-.63.17-2.64,3.72,5,5.62,7.35,6.11,2.82.57,11.82,1.76,12.5-2.6.1-.63-.07-1.15-.62-1.51-2.14-1.41-6.48.13-8.93.11h-.13c.61-2.44,1.13-4.84,1.71-7.21.73.21,1.44.47,2.12.78.17.45.53.83,1.15.98.41.1.8.21,1.19.33,1.21.84,2.32,1.87,3.26,3.14.83,1.11,2.32.86,3,.08,8.03,6.27,9.44,18.33,4.19,27.89-7.37,13.42-28.07,18.27-39.74,7.6-9.51-8.69-5.38-24.44,1.51-33.24ZM44.37,172.9c17.73.06,34.57-7.85,52.39-9.11,5.5-.39,10.87,2.24,15.46,4.93,2.82,1.64,6.44,5.22,10.03,4.89,8.35-.76,8.97-10.41,9.03-17.3,7.89-2.36,15.22-6.3,23.3-8.08,5.76-1.27,13.89-.05,17.51,5.21,1.24,1.79,1.43,4.34,1.63,6.88-4.59.49-9.79.63-13.42,3.48-2.79,2.18-4.16,1.03-6.61.11-2.15-.8-3.98-.46-6.13.26-4.36,1.46-7.33,5.84-10.63,8.77-.46.4-.77.67-.99.87-1.28-.36-2.8.11-4,.42-2.16.55-4.3.04-6.43.62-4.7,1.27-9.78,1.74-14.61,2.32-7.94.95-15.9,1.99-23.73,3.7-3.56.77-6.92,1.99-10.39,3.08-3.41,1.07-8.02.19-11.66.59-2.96.33-6.06,1.7-8.88,2.66-3.35,1.15-5.92,1.11-9.05.78-.31-5.2-.6-10.31-2.84-15.07ZM49.37,208.7c-.6-5.32-1.3-10.64-1.82-15.97-.03-.38-.07-.76-.1-1.14,3.02.81,6.32-.61,9.54-1.77,5.88-2.14,11.49,1.79,17.22-1.29,3.8-2.05,7.86-2.26,12.01-3.09,4.2-.83,8.36-1.85,12.54-2.74,8.78-1.86,18.29-4.14,27.27-4.15,1.55,0,3.98.29,5.49-.17.49-.15,2.98-1.12,3.29-.79.35.37.86.57,1.37.57,2.98,0,6.56-5.42,8.42-7.29,2.51-2.52,5.73-4.81,9.22-2.48,1.34.9,3.34,1.04,4.86.62,1.8-.49,2.98-1.24,4.34-2.5,2.36-2.18,7.41-2.19,11.16-2.31.12.63.29,1.25.51,1.81.35.86,1.17,1.53,2.16,1.23,3.71-1.15,6.21-3.21,7.95-6.26.26.2.57.35.95.37,7.41.35,14-2.34,20.93-4.58,7.18-2.32,13.6-4.85,20.02-8.71-.45,6.17-1.37,12.4,4.76,15.75-4.09,1.96-8.2,3.85-12.58,5.12-9.79,2.83-20.21,2.94-29.83,6.6-4.24,1.61-7.69,2.56-12.22,3.09-3.3.39-5.88.98-8.8,2.63-3.17,1.8-5.42,4.2-9.01,5.3-5.5,1.7-12.16,1.17-17.87,1.52-9.93.61-19.27,4.04-28.83,6.5-4.94,1.27-9.82,2.5-14.94,2.81-4.86.29-9.61.56-14.25,2.21-6,2.13-11.78,4.48-17.88,6.38-1.26.39-14.52,4.23-15.21,3.08-.15-.25-.4-.35-.65-.35ZM194.52,148.53c.79,0,1.23-.72,1.1-1.44-.03-.16-.06-.32-.09-.47,2.79,1.89,6.27,2.15,10.7-.49,3.52-2.09,5.44-6.48,7.87-9.59,3.7-4.72,8.08-3.59,10.6-.03-1.72.27-1.63,3.07.27,3.07.47,0,.83-.17,1.07-.43.18.5.34,1.01.45,1.55.2.95.29,1.92.33,2.93-.36-.03-.75.04-1.14.24-6.1,3.13-12.51,5.68-18.66,8.69-6.42,3.14-13.91,3.66-20.82,5.31,1.98-5.88-.37-13.5,3.35-18.34.09.08.18.17.29.24.11.08.23.13.35.16,1.15,2.23,2.48,4.22,4.06,5.68-.07.03-.15.07-.22.13-.46.36-.5.83-.6,1.36-.14.72.31,1.44,1.09,1.44ZM50.12,216.13c-.13-1.62-.3-3.24-.47-4.86,4.89,4.92,19.45-3.76,24.07-5.51,3.95-1.49,7.7-1.75,11.91-1.77,4.8-.02,9.65-1.24,14.3-2.27,10.7-2.36,20.81-5.75,31.22-9.21,7.74-2.58,16.07-1.29,24.06-2.25-.15.17-.29.37-.34.63-.11.51-.12.93-.03,1.45.29,1.61,2.97,1.61,3.26,0,.09-.52.08-.94-.03-1.45-.09-.45-.37-.75-.73-.95,1.33-.23,2.66-.55,3.96-.97,3.1-1.01,5.48-3.55,8.05-5.4,3.78-2.72,8.23-2.06,12.59-2.73,4.69-.72,9-2.74,13.61-3.86,5.24-1.27,10.63-2.15,15.97-2.98,5.49-.85,11.08-1.62,16.42-3.18,3.82-1.12,9.79-5.44,13.85-4.36.06.02.11.02.18.03-.01,4.24.2,8.49.48,12.74-2.55,1.11-5.38,1.21-7.78,2.57-3.83,2.17-7.51,4.24-11.79,5.4-8.06,2.18-16.26,2.44-24.17,5.39-7.91,2.96-15.54,6.52-23.62,9-8.8,2.72-18.15,3.58-27.11,5.73-8.32,2-16.77,3.2-25.03,5.37-9.03,2.38-18.4,3.68-27.15,6.88-4.05,1.48-8.35,2.09-12.48,3.28-4.8,1.38-8.99,2.86-14.03,3.33-.09,0-.17.02-.25.03.63-.75.31-2.33-.96-2.25-.86.06-1.61.18-2.22.85-.25.28-.25.65,0,.93.35.37.73.57,1.16.69-1.86.24-3.72.62-5.43,1.4-3.06,1.39-6.85,4.84-10.47,5.56-.2-5.77-.51-11.55-.99-17.24ZM242.91,207.78c-.15,1.27-.31,2.62-.03,3.77-11.84,2.66-23.48,7.69-34.6,12.44-6.38,2.72-11.92,6.49-17.87,10-8.71,5.13-19.03,4.26-28.64,6.21-8.4,1.71-15.81,6.37-24,8.76-10.13,2.96-20.87,5.18-31.36,6.35-9.41,1.05-18.79,1.59-27.98,4.06-4.42,1.19-8.65,3.21-12.96,4.72-4.25,1.49-8.59,2.22-13.02,2.82.52-4.36,0-8.89-.48-13.4,5.62,2.71,18.97-2.23,22.72-3.43,4.18-1.33,8.65-2.63,12.95-3.52,5.46-1.14,10.44-.19,15.9-.22,4.43-.02,7.37-2.87,10.69-5.42,4.96-3.78,11.08-3.78,16.92-3.13,4.22.47,7.69-.09,11.44-2.07,4.04-2.13,7.47-5.06,12.14-5.67,2.01-.26,4.14,1.28,6.2,1.23,2.01-.05,3.7-.37,5.58-1.11,4.75-1.85,8.73-8.87,13.73-9.08,9.48-.39,19.56.09,28.69-2.8.03.71.49,1.41,1.4,1.39.44-.01.93.03,1.35-.13,1.14-.43,1.28-1.76.43-2.42,10.02-4.15,19.06-10,29.25-13.8.63-.23,1.03-.66,1.25-1.16.27.03.54.03.81-.01-.11,1.87-.27,3.73-.5,5.61ZM243.27,197.96c-.08,0-.15-.02-.23-.03-.02,0-.05,0-.08,0-.23-.07-.02-.15.31.03ZM242.01,197.64c-.05.01-.1.02-.14.03.05,0,.13,0,.24,0-.96,0-1.71.66-1.98,1.52-8.36,3.24-16.58,6.95-24.74,10.63-10.32,4.66-20.89,3.9-31.65,6.3-4.56,1.03-7.89,4.52-12.59,5.36-4.1.74-7.43,3.89-11.67,3.93-3.67.03-6.48-.37-10.05.91-3.64,1.32-6.87,3.76-10.5,5.23-3.88,1.57-9.19.99-13.32,1.35-3.6.32-6.7,1.61-9.87,3.29-8.75,4.62-17.65,4.92-27.17,6.62-6.89,1.23-13.92,1.75-20.67,3.58-2.68.73-11.81,6.02-16.12,5.29-.22-2.17-.4-4.32-.41-6.44-.01-2.97-.07-5.95-.15-8.95,4.92.55,8.39-4.78,13.36-6.28,3.66-1.11,7.78-.49,11.55-.71,4.28-.25,8.64-1.53,12.82-2.42,4.22-.91,8.35-1.83,12.64-2.43,5.08-.72,9.23-4.06,14.05-5.54,9.53-2.9,19.15-6.16,28.85-8.39,9.09-2.09,18.39-3.22,27.48-5.31,8.89-2.05,17.23-6.06,25.64-9.45,3.7-1.49,7.4-2.8,11.31-3.6,4.34-.89,8.83-.26,13.2-.87,4.15-.58,7.88-1.74,11.65-3.53,3.47-1.65,5.62-4.9,8.84-6.69.34,4.88.73,9.75.91,14.6.03.74.03,1.47.03,2.21-.44-.27-.97-.36-1.51-.25ZM239.96,160.51c-.78.01-1.55.17-2.4.47-4.36.34-8.39-2.15-7.63-8.15.79-6.32,1.27-14.24-2.83-19.61-3.48-4.55-9.79-4.02-13.9-.81-2.79,2.17-4.43,5.86-6.58,8.59-2.01,2.56-5.79,4.8-9.12,3.18-2.76-1.35-4.31-5.73-5.39-8.36-.06-.15-.14-.29-.23-.43-.03-.03-.05-.06-.07-.09-.53-.69-1.46-1.13-2.27-.53-.05.04-.08.07-.13.11-.07.05-.13.09-.19.15-3.79,2.9-5.24,5.9-5.24,10.77,0,6.21-.16,13.76-5.8,17.05.41-1.03-.07-2.38-1.29-2.72-.39-2.84-.56-5.73-1.75-8.45-1.8-4.1-7.81-6.08-11.76-7-11.67-2.72-23.49,5.7-34.3,8.65-.76.21-1.29.91-1.29,1.69-.01,5.05-.68,18.48-9.06,13.7-3.16-1.8-6.05-3.9-9.33-5.51-6.13-3.01-12.54-3.28-19.19-2.25-18.14,2.79-35.87,11.14-54.49,7.68-.25-.21-.51-.39-.79-.55.15-.79.11-1.63-.07-2.39,2.54-9.93,8.67-17.77,15.4-25.59,7.19-8.35,15.02-16.12,23.25-23.44,15.59-13.86,33.09-25.47,51.68-34.89-2.11,8.59-.75,17.89,5.51,24.54,5.85,6.2,16.4,7.51,24.35,6.36,8.15-1.17,15.43-6.81,20.07-13.33,5.44-7.63,5.89-17.42,2.31-25.23,16.23,4.02,33.59,4.46,48.92,11.57,6.4,2.98,11.32,7.74,15.01,13.48-.81,6.54-10.51,9.83-15.99,11.84-10.08,3.68-20.19,7.17-30.19,11.13-13.37,5.31-26.57,10.54-40.29,14.9-13.66,4.34-27.45,7.93-41.19,12-.17.05-.1.3.07.27,15.4-2.73,30.98-7.25,45.93-11.78,15.78-4.78,31.72-9.23,47.22-14.88,9.3-3.38,19.66-5.88,28.37-10.69,4.04-2.23,7.05-5.45,8.09-9.31,5.68,10.74,7.71,24.03,7.51,35.52-.11,6.24-1.82,12.23-4.9,17.64-1.34,2.35-3.62,3.96-6.04,4.72Z"/>
  <path class="st1" d="M168.73,68.34c-.69.78-2.17,1.03-3-.08-.94-1.26-2.05-2.29-3.26-3.14-.39-.12-.79-.23-1.19-.33-.63-.15-.99-.53-1.15-.98-.68-.31-1.39-.57-2.12-.78-.59,2.38-1.11,4.77-1.71,7.21h.13c2.46.02,6.79-1.52,8.93-.11.55.37.72.89.62,1.51-.67,4.36-9.68,3.17-12.5,2.6-2.35-.49-9.99-2.4-7.35-6.11.14-.2.41-.31.63-.17,2.21,1.37,4.13,1.91,6.34,2.13-.47-2.46-.33-5.09.22-7.78-7-.2-14.56,3.09-18.63,8.27-6.89,8.8-11.01,24.55-1.51,33.24,11.67,10.67,32.38,5.82,39.74-7.6,5.25-9.55,3.84-21.62-4.19-27.89ZM169.67,96.07c-5.85,9.17-18.16,13.62-28.43,9.49-9.11-3.68-11.24-13.6-8.05-22.09.17-.46.96-.43.91.12-.66,7.81,2.05,16.3,10.57,18.35,9.05,2.17,16.77-2.27,24.48-6.37.31-.17.72.18.51.51Z"/>
  <path class="st3" d="M242.01,197.64c-.05.01-.1.02-.14.03.05,0,.13,0,.24,0-.96,0-1.71.66-1.98,1.52-8.36,3.24-16.58,6.95-24.74,10.63-10.32,4.66-20.89,3.9-31.65,6.3-4.56,1.03-7.89,4.52-12.59,5.36-4.1.74-7.43,3.89-11.67,3.93-3.67.03-6.48-.37-10.05.91-3.64,1.32-6.87,3.76-10.5,5.23-3.88,1.57-9.19.99-13.32,1.35-3.6.32-6.7,1.61-9.87,3.29-8.75,4.62-17.65,4.92-27.17,6.62-6.89,1.23-13.92,1.75-20.67,3.58-2.68.73-11.81,6.02-16.12,5.29-.22-2.17-.4-4.32-.41-6.44-.01-2.97-.07-5.95-.15-8.95,4.92.55,8.39-4.78,13.36-6.28,3.66-1.11,7.78-.49,11.55-.71,4.28-.25,8.64-1.53,12.82-2.42,4.22-.91,8.35-1.83,12.64-2.43,5.08-.72,9.23-4.06,14.05-5.54,9.53-2.9,19.15-6.16,28.85-8.39,9.09-2.09,18.39-3.22,27.48-5.31,8.89-2.05,17.23-6.06,25.64-9.45,3.7-1.49,7.4-2.8,11.31-3.6,4.34-.89,8.83-.26,13.2-.87,4.15-.58,7.88-1.74,11.65-3.53,3.47-1.65,5.62-4.9,8.84-6.69.34,4.88.73,9.75.91,14.6.03.74.03,1.47.03,2.21-.44-.27-.97-.36-1.51-.25Z"/>
  <path class="st3" d="M231.45,163.81c-4.09,1.96-8.2,3.85-12.58,5.12-9.79,2.83-20.21,2.94-29.83,6.6-4.24,1.61-7.69,2.56-12.22,3.09-3.3.39-5.88.98-8.8,2.63-3.17,1.8-5.42,4.2-9.01,5.3-5.5,1.7-12.16,1.17-17.87,1.52-9.93.61-19.27,4.04-28.83,6.5-4.94,1.27-9.82,2.5-14.94,2.81-4.86.29-9.61.56-14.25,2.21-6,2.13-11.78,4.48-17.88,6.38-1.26.39-14.52,4.23-15.21,3.08-.15-.25-.4-.35-.65-.35-.6-5.32-1.3-10.64-1.82-15.97-.03-.38-.07-.76-.1-1.14,3.02.81,6.32-.61,9.54-1.77,5.88-2.14,11.49,1.79,17.22-1.29,3.8-2.05,7.86-2.26,12.01-3.09,4.2-.83,8.36-1.85,12.54-2.74,8.78-1.86,18.29-4.14,27.27-4.15,1.55,0,3.98.29,5.49-.17.49-.15,2.98-1.12,3.29-.79.35.37.86.57,1.37.57,2.98,0,6.56-5.42,8.42-7.29,2.51-2.52,5.73-4.81,9.22-2.48,1.34.9,3.34,1.04,4.86.62,1.8-.49,2.98-1.24,4.34-2.5,2.36-2.18,7.41-2.19,11.16-2.31.12.63.29,1.25.51,1.81.35.86,1.17,1.53,2.16,1.23,3.71-1.15,6.21-3.21,7.95-6.26.26.2.57.35.95.37,7.41.35,14-2.34,20.93-4.58,7.18-2.32,13.6-4.85,20.02-8.71-.45,6.17-1.37,12.4,4.76,15.75Z"/>
  <path class="st2" d="M250.9,138.14c-.11,6.24-1.82,12.23-4.9,17.64-1.34,2.35-3.62,3.96-6.04,4.72-.78.01-1.55.17-2.4.47-4.36.34-8.39-2.15-7.63-8.15.79-6.32,1.27-14.24-2.83-19.61-3.48-4.55-9.79-4.02-13.9-.81-2.79,2.17-4.43,5.86-6.58,8.59-2.01,2.56-5.79,4.8-9.12,3.18-2.76-1.35-4.31-5.73-5.39-8.36-.06-.15-.14-.29-.23-.43-.03-.03-.05-.06-.07-.09-.53-.69-1.46-1.13-2.27-.53-.05.04-.08.07-.13.11-.07.05-.13.09-.19.15-3.79,2.9-5.24,5.9-5.24,10.77,0,6.21-.16,13.76-5.8,17.05.41-1.03-.07-2.38-1.29-2.72-.39-2.84-.56-5.73-1.75-8.45-1.8-4.1-7.81-6.08-11.76-7-11.67-2.72-23.49,5.7-34.3,8.65-.76.21-1.29.91-1.29,1.69-.01,5.05-.68,18.48-9.06,13.7-3.16-1.8-6.05-3.9-9.33-5.51-6.13-3.01-12.54-3.28-19.19-2.25-18.14,2.79-35.87,11.14-54.49,7.68-.25-.21-.51-.39-.79-.55.15-.79.11-1.63-.07-2.39,2.54-9.93,8.67-17.77,15.4-25.59,7.19-8.35,15.02-16.12,23.25-23.44,15.59-13.86,33.09-25.47,51.68-34.89-2.11,8.59-.75,17.89,5.51,24.54,5.85,6.2,16.4,7.51,24.35,6.36,8.15-1.17,15.43-6.81,20.07-13.33,5.44-7.63,5.89-17.42,2.31-25.23,16.23,4.02,33.59,4.46,48.92,11.57,6.4,2.98,11.32,7.74,15.01,13.48-.81,6.54-10.51,9.83-15.99,11.84-10.08,3.68-20.19,7.17-30.19,11.13-13.37,5.31-26.57,10.54-40.29,14.9-13.66,4.34-27.45,7.93-41.19,12-.17.05-.1.3.07.27,15.4-2.73,30.98-7.25,45.93-11.78,15.78-4.78,31.72-9.23,47.22-14.88,9.3-3.38,19.66-5.88,28.37-10.69,4.04-2.23,7.05-5.45,8.09-9.31,5.68,10.74,7.71,24.03,7.51,35.52Z"/>
  <path class="st0" d="M226.49,140.69c-.11-.53-.27-1.05-.45-1.55-.25.26-.6.43-1.07.43-1.9,0-1.99-2.8-.27-3.07-2.52-3.56-6.9-4.69-10.6.03-2.43,3.11-4.35,7.49-7.87,9.59-4.43,2.64-7.91,2.38-10.7.49.03.15.06.31.09.47.13.72-.31,1.44-1.1,1.44s-1.23-.72-1.09-1.44c.1-.53.14-1,.6-1.36.07-.05.15-.09.22-.13-1.58-1.45-2.91-3.44-4.06-5.68-.12-.03-.24-.08-.35-.16-.11-.07-.19-.16-.29-.24-3.72,4.84-1.37,12.46-3.35,18.34,6.91-1.65,14.4-2.17,20.82-5.31,6.15-3.02,12.56-5.56,18.66-8.69.39-.2.78-.27,1.14-.24-.04-1.01-.13-1.98-.33-2.93ZM188.67,150c-1.86,0-1.86-2.88,0-2.88s1.86,2.88,0,2.88ZM192.76,154.17c-1.95,0-1.95-3.02,0-3.02s1.95,3.02,0,3.02ZM201.54,152.11c-1.55,0-1.55-2.42,0-2.42s1.56,2.42,0,2.42ZM213.84,146.74c-.17-.02-.33-.05-.49-.07-.88-.11-1.63-.65-1.63-1.62s.75-1.51,1.63-1.63c.16-.02.33-.04.49-.06.91-.12,1.69.85,1.69,1.69s-.77,1.81-1.69,1.69ZM219.69,140.34c-2.23,0-2.23-3.46,0-3.46s2.23,3.46,0,3.46Z"/>
  <path class="st0" d="M243.41,202.17c-.27.04-.55.04-.81.01-.22.5-.63.93-1.25,1.16-10.19,3.8-19.23,9.65-29.25,13.8.85.65.71,1.98-.43,2.42-.41.15-.91.11-1.35.13-.91.03-1.37-.67-1.4-1.39-9.13,2.89-19.21,2.42-28.69,2.8-5,.21-8.98,7.23-13.73,9.08-1.88.73-3.58,1.06-5.58,1.11-2.05.05-4.19-1.49-6.2-1.23-4.67.61-8.1,3.54-12.14,5.67-3.76,1.99-7.22,2.54-11.44,2.07-5.84-.65-11.96-.65-16.92,3.13-3.33,2.55-6.26,5.4-10.69,5.42-5.46.03-10.44-.92-15.9.22-4.3.89-8.77,2.19-12.95,3.52-3.75,1.2-17.09,6.14-22.72,3.43.49,4.51,1,9.04.48,13.4,4.42-.6,8.77-1.33,13.02-2.82,4.32-1.51,8.54-3.54,12.96-4.72,9.19-2.47,18.57-3.02,27.98-4.06,10.49-1.17,21.23-3.4,31.36-6.35,8.19-2.39,15.6-7.05,24-8.76,9.61-1.95,19.93-1.08,28.64-6.21,5.96-3.51,11.49-7.28,17.87-10,11.13-4.74,22.77-9.77,34.6-12.44-.28-1.15-.12-2.5.03-3.77.23-1.88.39-3.74.5-5.61ZM58.71,263.16c-2.09,0-2.09-3.24,0-3.24s2.09,3.24,0,3.24ZM64.55,258.03c-.09,1.01-1.03,2-2.21,1.67-1.17-.32-1.57-1.75-.96-2.66.47-1.13,1.91-1.46,2.88-.61.45.39.52,1.07.29,1.6ZM69.84,255.5c-2.02,0-2.02-3.13,0-3.13s2.01,3.13,0,3.13ZM75.34,258c-.69-.69-1.12-1.71-1.35-2.73-1.03-.92-.65-3.08,1.12-3.08,1.51,0,2,1.59,1.47,2.62.21.7.57,1.35.67,2.08.14,1.05-1.01,1.99-1.91,1.11ZM87.28,254.51c-.06.06-.11.13-.17.19-.07.13-.17.26-.31.38-.06.05-.11.11-.17.16-.59.65-1.69.59-2.29,0-.65-.65-.59-1.63,0-2.29.05-.06.1-.11.15-.17.12-.13.25-.23.38-.31.07-.05.13-.11.19-.17,1.51-1.35,3.56.7,2.21,2.21ZM92.08,252.75c-2.25,0-2.25-3.49,0-3.49s2.25,3.49,0,3.49ZM100.38,255.26c-.91.49-2.17-.23-2.17-1.33s1.26-1.82,2.17-1.32c1.29.21,1.29,2.43,0,2.65ZM108.47,251.55c-1.23,0-1.8-1.09-1.65-2.17.05-.35.18-.63.36-.89.39-1.13,2.19-1.13,2.59,0,.18.26.31.53.36.89.15,1.08-.43,2.17-1.65,2.17ZM115.82,253.34c-.89.24-1.73-.6-1.49-1.49.24-.86,1.09-1.09,1.77-.72.93.5.69,1.93-.29,2.21ZM119.01,247.79c-1.89,0-1.89-2.94,0-2.94s1.89,2.94,0,2.94ZM124.26,247.16c-.23.17-.51.25-.84.16-.54-.15-.87-.73-.71-1.27.15-.55.72-.87,1.26-.72.14.03.24.1.33.17.77.34.76,1.34-.04,1.65ZM125.13,241.48c-1.01.76-1.98,2.01-3.44,1.63-.46-.12-.81-.66-.64-1.13.28-.79.82-1.31,1.33-1.94.17-.21.37-.4.57-.59.15-.51.56-.94,1.09-1.09.25-.07.55-.07.82-.09,1.97-.14,2.06,3.04.27,3.2ZM132.86,247.69c-.17-.21-.35-.43-.53-.64-.16-.19.08-.43.27-.27.21.17.43.35.64.53.27.23-.16.66-.39.39ZM133.64,241.67c-2.3,0-2.3-3.57,0-3.57s2.3,3.57,0,3.57ZM139.06,247.15c-.79.1-1.64-.79-1.57-1.56.04-.4.13-.7.29-.99v-.03c-.03-2.21,3.48-2.21,3.44,0-.03,1.38-.72,2.4-2.15,2.58ZM141.27,240.31c-.33.67-1.01.78-1.61.56-.89.15-1.74-.71-1.74-1.57,0-.94,1.03-1.91,1.99-1.52.54.21.97.31,1.33.83.36.53.28,1.17.02,1.7ZM154.72,240.11c-2.57,0-2.57-3.98,0-3.98s2.56,3.98,0,3.98ZM170.09,233.92c-.05,1.04-.83,1.91-1.91,1.91s-1.85-.87-1.91-1.91c0-.15-.02-.31-.03-.47-.06-1.05.92-1.93,1.93-1.93s1.99.88,1.93,1.93c0,.16-.02.32-.03.47ZM175.79,235.76c-1.18,0-1.89-1.09-1.67-2.19.06-.3.11-.57.29-.84.65-1.03,2.1-1.03,2.76,0,.17.27.23.54.29.84.23,1.09-.48,2.19-1.66,2.19ZM178.71,228.75c-2.25,0-2.25-3.48,0-3.48s2.25,3.48,0,3.48ZM184.97,229.15c-.89-.83-1.91-1.5-2.83-2.29-1.53-.63-1.31-3.36.67-3.36.71,0,1.19.34,1.45.81.97.89,2.07,1.61,3.03,2.5,1.56,1.45-.77,3.76-2.33,2.33ZM194.16,229.3c-.12.12-.31.24-.49.34-.39.64-1.17,1.01-1.95.8-.97-.27-1.39-1.21-1.22-2.14.25-1.28,1.74-2.09,2.96-1.65.49.17,1.01.55,1.11,1.11.09.58.03,1.11-.41,1.54ZM201.54,223.78c-1.87,0-1.87-2.91,0-2.91s1.87,2.91,0,2.91Z"/>
  <path class="st0" d="M241.97,166.48c-.07-.01-.12-.01-.18-.03-4.06-1.08-10.03,3.24-13.85,4.36-5.34,1.56-10.93,2.33-16.42,3.18-5.34.83-10.73,1.7-15.97,2.98-4.61,1.12-8.92,3.14-13.61,3.86-4.36.67-8.81.01-12.59,2.73-2.57,1.85-4.96,4.39-8.05,5.4-1.3.43-2.62.74-3.96.97.35.2.63.51.73.95.11.51.12.93.03,1.45-.29,1.61-2.97,1.61-3.26,0-.09-.52-.08-.94.03-1.45.05-.26.19-.46.34-.63-7.99.96-16.32-.32-24.06,2.25-10.41,3.46-20.52,6.85-31.22,9.21-4.65,1.03-9.5,2.25-14.3,2.27-4.21.02-7.96.28-11.91,1.77-4.62,1.75-19.18,10.43-24.07,5.51.17,1.62.34,3.24.47,4.86.48,5.69.79,11.47.99,17.24,3.62-.73,7.42-4.17,10.47-5.56,1.71-.78,3.57-1.16,5.43-1.4-.43-.11-.81-.31-1.16-.69-.25-.28-.25-.65,0-.93.61-.67,1.36-.79,2.22-.85,1.27-.08,1.59,1.5.96,2.25.09,0,.17-.02.25-.03,5.04-.47,9.23-1.95,14.03-3.33,4.14-1.19,8.43-1.8,12.48-3.28,8.75-3.2,18.12-4.5,27.15-6.88,8.27-2.17,16.71-3.37,25.03-5.37,8.95-2.15,18.31-3.02,27.11-5.73,8.08-2.48,15.71-6.04,23.62-9,7.91-2.96,16.11-3.21,24.17-5.39,4.28-1.16,7.97-3.23,11.79-5.4,2.4-1.35,5.23-1.45,7.78-2.57-.28-4.25-.49-8.5-.48-12.74ZM54.02,217.05c.05-.41.08-.99.45-1.27.39-.31.84-.5,1.33-.32.68.25.97,1.06.58,1.61.17,1.51-2.56,1.49-2.36-.02ZM55.2,223.25c-1.95,0-1.95-3.02,0-3.02s1.95,3.02,0,3.02ZM63.73,216.24s-.08.02-.11.03c.02-.01.05-.03.08-.05-1.11.78-2.62-.27-2.62-1.5s1.35-2.17,2.44-1.62h-.01s.02,0,.07.03c.05.03.1.05.17.07,1.5.43,1.5,2.62,0,3.05ZM70.18,218.18c-.57.61-1.34.59-2.11.62-2.24.06-2.24-3.55,0-3.49.77.02,1.53,0,2.11.62.6.65.6,1.59,0,2.25ZM77.9,220.59c-.09.36-.25.71-.43,1.03-.1.19-.17.47-.13.11-.1.9-.68,1.66-1.66,1.66-.86,0-1.71-.75-1.66-1.66.04-.55.17-.98.39-1.48,0-.01.12-.32.13-.32.03-.08.05-.16.07-.25.19-.91,1.24-1.42,2.09-1.18.9.24,1.42,1.19,1.19,2.09ZM80.96,214.42c-1.11-.09-2.04-.86-2.04-2.04s.85-1.87,1.89-2.02c.01,0,.03-.01.05-.02.09-.01.17-.02.25-.03-.02,0-.05,0-.07,0,.43-.15.79-.09,1.23-.02.82.13,1.44,1.07,1.41,1.86-.04,1.48-1.31,2.38-2.72,2.27ZM89.5,219.97c-.26.94-1.13,1.6-2.11,1.6s-1.85-.66-2.1-1.6c-.27-.99.19-1.9,1-2.46.03-.02.05-.03.08-.05-.04.04-.08.08-.12.12.71-.52,1.57-.52,2.28,0-.03-.04-.07-.08-.11-.12.02.02.05.03.07.05.81.56,1.28,1.47,1.01,2.46ZM91.04,214.86c-.11.29-.35.51-.71.51-.61,0-1.01-.69-.69-1.21.13-.23.16-.45.43-.6.25-.15.57-.16.85-.19.92-.08.96,1.41.13,1.49ZM89.74,210.23c-2.53,0-2.53-3.92,0-3.92s2.53,3.92,0,3.92ZM132.79,192.18c.9.11,1.7.83,1.43,1.82-.05.16-.13.31-.23.44-.11,1.75-3.21,1.68-3.06-.22.08-1.02.61-2.19,1.85-2.04ZM100.23,204.76c.01-.13.03-.27.05-.4.19-1.51,2.15-1.51,2.34,0,.02.13.04.27.05.4.2,1.57-2.64,1.57-2.44,0ZM103.46,214.46c-.26.11-.55.17-.85.14-.05,0-.11-.01-.16-.02-.69.07-1.31-.31-1.71-.85-.31-.36-.49-.81-.49-1.35s.19-1,.49-1.36c.41-.54,1.02-.91,1.71-.85.05,0,.11-.01.16-.02.3-.03.59.03.85.14,1.01.21,1.82.95,1.82,2.09s-.81,1.87-1.82,2.08ZM109.06,214.93c-1.79,0-1.79-2.78,0-2.78s1.78,2.78,0,2.78ZM114.91,205.68c-1.06,0-2.18-.95-2.09-2.09.05-.52.05-1.05.37-1.5.89-1.28,2.55-1.28,3.45,0,.31.45.31.98.36,1.5.09,1.13-1.02,2.09-2.09,2.09ZM120.77,211.37c-.6,0-1.05-.39-1.25-.9-.05-.04-.09-.07-.14-.11-.01,0-.08-.06-.21-.17-.13-.13-.22-.29-.27-.47-.17-.51.13-.95.56-1.19.05-.03.11-.08.22-.16.2-.12.42-.18.66-.18.32,0,.6.13.89.27.44.21.77.75.83,1.21.12.85-.35,1.7-1.29,1.7ZM123.69,201.48c-1.08.04-1.99-.93-1.99-1.99s.91-2.02,1.99-1.99c1.18.04,2.43.62,2.43,1.99s-1.25,1.95-2.43,1.99ZM133.34,204.71c-.13.03-.25.05-.38.07-1.16.2-2.33-.49-2.33-1.77s1.17-1.97,2.33-1.77c.13.02.25.04.38.07,1.69.29,1.69,3.12,0,3.41ZM137.76,207.69c-.63-.63-.63-1.71,0-2.34,1.06-1.6,3.8-.89,3.8,1.17s-2.74,2.77-3.8,1.17ZM143.34,196.56c.11-1.17.74-2.61,2.06-2.82.87-.13,1.7.07,2.17.88.39.65.28,1.29,0,1.94-.03.09-.19.33-.28.46-.24.88-.95,1.55-1.93,1.55s-2.13-.92-2.01-2.02ZM148.05,205.01c-.47.8-1.26.96-2.11,1.06-1.03.11-1.89-.95-1.89-1.89,0-.86.72-1.8,1.62-1.88t0-.01c.44-.3,1.26-.33,1.69,0,.86.67,1.27,1.72.68,2.73ZM162.31,196.37c-.42.23-.69.62-.89,1.07-.11.23-.04-.01-.1.22,0,.02-.03.19-.04.23-.02.15-.03.3-.08.44-.03.07-.05.12-.07.17-.5,1.25-2.15,1.02-2.3-.32-.05-.43.09-.81.29-1.19.09-.18.23-.55.39-.83.4-.71.95-1.35,1.67-1.73.2-.1.38-.13.57-.13.01,0,.03,0,.05,0,.97.07,1.58,1.47.53,2.07ZM168.18,196.72c-1.71,0-1.71-2.66,0-2.66s1.71,2.66,0,2.66ZM171.1,190.86c-.55.33-1.13.29-1.75.3-2.09.03-2.09-3.27,0-3.24.61,0,1.2-.03,1.75.3.99.6.99,2.03,0,2.64ZM172.86,198.03c-1.89,0-1.89-2.94,0-2.94s1.89,2.94,0,2.94ZM181.06,192.12c-1.06,0-1.06-1.65,0-1.65s1.06,1.65,0,1.65ZM185.16,196.73c-1.05,0-1.92-.87-1.92-1.92s.87-1.92,1.92-1.92,1.92.87,1.92,1.92-.88,1.92-1.92,1.92ZM187.5,184.8c-.63-.07-1.2-.11-1.64-.62-.57-.66-.57-1.49,0-2.15.44-.51,1.01-.56,1.64-.63.92-.1,1.7.85,1.7,1.7s-.78,1.8-1.7,1.7ZM198.03,179.99c.99,0,.99,1.53,0,1.53s-.99-1.53,0-1.53ZM197.45,188.49c-2.41,0-2.41-3.74,0-3.74s2.41,3.74,0,3.74ZM204.47,190.09c-.93,0-1.71-.78-1.71-1.71s.78-1.71,1.71-1.71,1.71.78,1.71,1.71-.78,1.71-1.71,1.71ZM209.74,182.07c-1.68,0-1.68-2.61,0-2.61s1.68,2.61,0,2.61ZM212.08,186.07c-.05,0-.05-.08,0-.08s.05.08,0,.08ZM219.11,179.13c-2.43,0-2.43-3.76,0-3.76s2.42,3.76,0,3.76ZM226.72,181.99c-2.33,0-2.33-3.62,0-3.62s2.34,3.62,0,3.62ZM235.5,175.76c-.93,0-1.65-.92-1.39-1.82.04-.13.07-.25.11-.37.36-1.27,2.21-1.27,2.57,0,.03.13.07.25.11.37.25.9-.46,1.82-1.39,1.82ZM239.6,173.92c-1.75,0-1.75-2.72,0-2.72s1.75,2.72,0,2.72Z"/>
  <path class="st0" d="M172.1,153.44c-3.62-5.26-11.74-6.48-17.51-5.21-8.08,1.77-15.41,5.72-23.3,8.08-.06,6.88-.68,16.54-9.03,17.3-3.59.33-7.22-3.25-10.03-4.89-4.6-2.69-9.96-5.32-15.46-4.93-17.82,1.27-34.66,9.17-52.39,9.11,2.23,4.76,2.52,9.87,2.84,15.07,3.14.33,5.7.37,9.05-.78,2.82-.96,5.92-2.33,8.88-2.66,3.64-.4,8.25.48,11.66-.59,3.47-1.09,6.82-2.3,10.39-3.08,7.83-1.71,15.79-2.74,23.73-3.7,4.83-.58,9.91-1.05,14.61-2.32,2.13-.58,4.27-.07,6.43-.62,1.2-.31,2.72-.78,4-.42.21-.19.53-.47.99-.87,3.3-2.92,6.27-7.31,10.63-8.77,2.15-.72,3.98-1.06,6.13-.26,2.45.91,3.82,2.07,6.61-.11,3.62-2.84,8.83-2.99,13.42-3.48-.19-2.55-.39-5.09-1.63-6.88ZM54.34,178.4c-.1.83-.52,1.8-.86,2.45-.42.8-1.59,1.76-2.44.97-.94-.89-.43-2.5.08-3.47.21-.4.44-.79.79-1.09.45-.38.8-.49,1.29-.46.07-.01.15-.03.24-.03.92,0,1.27.99.89,1.63ZM59.17,182.55c-.07.28-.17.53-.29.8.05-.09-.08.25-.1.29-.08.25-.21.41-.37.61-.63.74-1.69.23-1.99-.53-.29-.75.1-1.86.62-2.42.89-.95,2.44.03,2.13,1.23ZM64.47,174.95c-.45.73-.93,1.48-1.55,2.09-1.46,1.45-3.7-.79-2.25-2.25.61-.62,1.36-1.1,2.09-1.54,1.07-.65,2.36.63,1.71,1.7ZM71.39,181.27c-.33.57-.97.71-1.58.79-.12.02-.24,0-.37-.02-.71.05-1.51-.42-1.51-1.28,0-.14.03-.29.06-.43,0-.04,0-.08.01-.12,0-.01,0-.03,0-.03.08-.51.35-.97.87-1.22-.01.01-.02.03-.04.04.67-.45,1.61-.55,2.18.15.49.6.81,1.39.37,2.13ZM75.11,175.22c-1.91,0-1.91-2.96,0-2.96s1.91,2.96,0,2.96ZM82.71,178.47c-2.33,0-2.33-3.62,0-3.62s2.33,3.62,0,3.62ZM88.57,171.61c-2.55,0-2.55-3.95,0-3.95s2.54,3.95,0,3.95ZM95.68,176.21c-.47.52-1.19.61-1.85.65-1.06.07-1.95-.93-1.95-1.95,0-.89.69-1.77,1.57-1.92.84-.53,2.04-.17,2.56.67.53.86.3,1.84-.33,2.56ZM96.76,172.05c-1.59,0-1.59-2.47,0-2.47s1.59,2.47,0,2.47ZM102.09,172.45c-.49-1.47-1.11-2.88-1.63-4.34-.75-2.13,2.62-3.02,3.36-.93.36,1.01.76,2,1.15,3,.11.11.2.23.27.37,0,0,0,.01.01.02.13.26.19.57.2.88,0,.03.02.05.03.07.73,2.15-2.67,3.07-3.39.93ZM113.16,174.01c-.72,0-1.53-.66-1.44-1.44.01-.17.03-.33.05-.49.2-1.78,2.58-1.78,2.78,0,.01.16.03.33.05.49.09.78-.72,1.44-1.44,1.44ZM136.24,169.67c-.16.25-.34.41-.58.56,0,.05-.02.13-.03.17,0-.03,0-.07.01-.15-.25,1.8-2.63,1.8-2.85-.03-.11-.85.11-1.63.84-2.14.7-.49,1.81-.51,2.42.12.37.39.48.99.19,1.47ZM135.4,162.49c-2.1,0-2.1-3.27,0-3.27s2.11,3.27,0,3.27ZM141.84,163.13c-2.17,0-2.17-3.38,0-3.38s2.18,3.38,0,3.38ZM146.04,156.24c-.47.55-1.2.63-1.87.69-1.05.1-1.93-.95-1.93-1.93,0-.89.71-1.8,1.61-1.92.69-.41,1.53-.37,2.16.23.85.81.74,2.07.03,2.92ZM152.74,155.23c-.73-.73-.81-2.08,0-2.8.17-.15.33-.3.51-.45.79-.69,1.95-.78,2.74,0,.77.78.7,1.95,0,2.74-.15.17-.3.34-.45.51-.72.8-2.07.72-2.8,0ZM154.41,159.47c-.7-.48-.7-1.43,0-1.91.83-.69,2.23-.31,2.23.95s-1.41,1.64-2.23.95ZM162.46,158.52c.04-.45.06-.87.29-1.27.57-1,2.09-1,2.66,0,.23.4.25.82.29,1.27.18,2.09-3.42,2.09-3.24,0ZM164.22,153.69c-1.09-.3-1.49-1.59-.99-2.46.08-.25.19-.47.39-.7.51-.58,1.59-.58,2.1,0,.17.19.27.37.35.57.8,1.1-.3,3.01-1.84,2.59Z"/>
  <path class="st4" d="M241.87,197.66c-.2,0-.13.01,0,0h0Z"/>
  <path class="st4" d="M53.45,176.76c-.09,0-.17.02-.24.03-.49-.03-.85.08-1.29.46-.35.29-.58.69-.79,1.09-.51.97-1.02,2.58-.08,3.47.85.79,2.01-.17,2.44-.97.34-.65.76-1.62.86-2.45.37-.64.03-1.63-.89-1.63ZM53.82,178.83s-.06.02-.09.03c.05-.01.07-.04.11-.05l-.02.02Z"/>
  <path class="st4" d="M64.47,174.95c-.45.73-.93,1.48-1.55,2.09-1.46,1.45-3.7-.79-2.25-2.25.61-.62,1.36-1.1,2.09-1.54,1.07-.65,2.36.63,1.71,1.7Z"/>
  <path class="st4" d="M59.17,182.55c-.07.28-.17.53-.29.8.05-.09-.08.25-.1.29-.08.25-.21.41-.37.61-.63.74-1.69.23-1.99-.53-.29-.75.1-1.86.62-2.42.89-.95,2.44.03,2.13,1.23Z"/>
  <path class="st4" d="M71.39,181.27c-.33.57-.97.71-1.58.79-.12.02-.24,0-.37-.02-.71.05-1.51-.42-1.51-1.28,0-.14.03-.29.06-.43,0-.04,0-.08.01-.12,0-.01,0-.03,0-.03.08-.51.35-.97.87-1.22-.01.01-.02.03-.04.04.67-.45,1.61-.55,2.18.15.49.6.81,1.39.37,2.13Z"/>
  <path class="st4" d="M75.11,175.22c-1.91,0-1.91-2.96,0-2.96s1.91,2.96,0,2.96Z"/>
  <path class="st4" d="M82.71,178.47c-2.33,0-2.33-3.62,0-3.62s2.33,3.62,0,3.62Z"/>
  <path class="st4" d="M88.57,171.61c-2.55,0-2.55-3.95,0-3.95s2.54,3.95,0,3.95Z"/>
  <path class="st4" d="M95.68,176.21c-.47.52-1.19.61-1.85.65-1.06.07-1.95-.93-1.95-1.95,0-.89.69-1.77,1.57-1.92.84-.53,2.04-.17,2.56.67.53.86.3,1.84-.33,2.56Z"/>
  <path class="st4" d="M102.09,172.45c-.49-1.47-1.11-2.88-1.63-4.34-.75-2.13,2.62-3.02,3.36-.93.36,1.01.76,2,1.15,3,.11.11.2.23.27.37,0,0,0,.01.01.02.13.26.19.57.2.88,0,.03.02.05.03.07.73,2.15-2.67,3.07-3.39.93Z"/>
  <path class="st4" d="M114.6,172.57c.09.78-.72,1.44-1.44,1.44s-1.53-.66-1.44-1.44c.01-.17.03-.33.05-.49.2-1.78,2.58-1.78,2.78,0,.01.16.03.33.05.49Z"/>
  <path class="st4" d="M96.76,172.05c-1.59,0-1.59-2.47,0-2.47s1.59,2.47,0,2.47Z"/>
  <path class="st4" d="M141.84,163.13c-2.17,0-2.17-3.38,0-3.38s2.18,3.38,0,3.38Z"/>
  <path class="st4" d="M146.04,156.24c-.47.55-1.2.63-1.87.69-1.05.1-1.93-.95-1.93-1.93,0-.89.71-1.8,1.61-1.92.69-.41,1.53-.37,2.16.23.85.81.74,2.07.03,2.92Z"/>
  <path class="st4" d="M155.98,154.72c-.15.17-.3.34-.45.51-.72.8-2.07.72-2.8,0-.73-.73-.81-2.08,0-2.8.17-.15.33-.3.51-.45.79-.69,1.95-.78,2.74,0,.77.78.7,1.95,0,2.74Z"/>
  <path class="st4" d="M156.65,158.52c0,1.27-1.41,1.64-2.23.95-.7-.48-.7-1.43,0-1.91.83-.69,2.23-.31,2.23.95Z"/>
  <path class="st4" d="M165.7,158.52c.18,2.09-3.42,2.09-3.24,0,.04-.45.06-.87.29-1.27.57-1,2.09-1,2.66,0,.23.4.25.82.29,1.27Z"/>
  <path class="st4" d="M164.22,153.69c-1.09-.3-1.49-1.59-.99-2.46.08-.25.19-.47.39-.7.51-.58,1.59-.58,2.1,0,.17.19.27.37.35.57.8,1.1-.3,3.01-1.84,2.59Z"/>
  <path class="st4" d="M135.4,162.49c-2.1,0-2.1-3.27,0-3.27s2.11,3.27,0,3.27Z"/>
  <path class="st4" d="M136.24,169.67c-.16.25-.34.41-.58.56,0,.05-.02.13-.03.17,0-.03,0-.07.01-.15-.25,1.8-2.63,1.8-2.85-.03-.11-.85.11-1.63.84-2.14.7-.49,1.81-.51,2.42.12.37.39.48.99.19,1.47Z"/>
  <path class="st4" d="M192.76,154.17c-1.95,0-1.95-3.02,0-3.02s1.95,3.02,0,3.02Z"/>
  <path class="st4" d="M188.67,150c-1.86,0-1.86-2.88,0-2.88s1.86,2.88,0,2.88Z"/>
  <path class="st4" d="M201.54,152.11c-1.55,0-1.55-2.42,0-2.42s1.56,2.42,0,2.42Z"/>
  <path class="st4" d="M215.53,145.05c0,.83-.77,1.81-1.69,1.69-.17-.02-.33-.05-.49-.07-.88-.11-1.63-.65-1.63-1.62s.75-1.51,1.63-1.63c.16-.02.33-.04.49-.06.91-.12,1.69.85,1.69,1.69Z"/>
  <path class="st4" d="M219.69,140.34c-2.23,0-2.23-3.46,0-3.46s2.23,3.46,0,3.46Z"/>
  <path class="st4" d="M55.2,223.25c-1.95,0-1.95-3.02,0-3.02s1.95,3.02,0,3.02Z"/>
  <path class="st4" d="M56.38,217.07c.17,1.51-2.56,1.49-2.36-.02.05-.41.08-.99.45-1.27.39-.31.84-.5,1.33-.32.68.25.97,1.06.58,1.61Z"/>
  <path class="st4" d="M63.56,213.12s-.04-.03-.05-.03h-.01s.02,0,.07.03Z"/>
  <path class="st4" d="M63.56,216.3c-.08.05-.1.07,0,0h0Z"/>
  <path class="st4" d="M63.73,216.24s-.08.02-.11.03c.02-.01.05-.03.08-.05-1.11.78-2.62-.27-2.62-1.5s1.35-2.17,2.44-1.62c.07.03.13.07.19.11-.07-.05-.1-.07-.13-.09.05.03.1.05.17.07,1.5.43,1.5,2.62,0,3.05Z"/>
  <path class="st4" d="M70.18,218.18c-.57.61-1.34.59-2.11.62-2.24.06-2.24-3.55,0-3.49.77.02,1.53,0,2.11.62.6.65.6,1.59,0,2.25Z"/>
  <path class="st4" d="M83.68,212.15c-.04,1.48-1.31,2.38-2.72,2.27-1.11-.09-2.04-.86-2.04-2.04s.85-1.87,1.89-2.02c.01,0,.03-.01.05-.02.09-.01.17-.02.25-.03-.02,0-.05,0-.07,0,.43-.15.79-.09,1.23-.02.82.13,1.44,1.07,1.41,1.86Z"/>
  <path class="st4" d="M89.74,210.23c-2.53,0-2.53-3.92,0-3.92s2.53,3.92,0,3.92Z"/>
  <path class="st4" d="M105.28,212.38c0,1.13-.81,1.87-1.82,2.08-.26.11-.55.17-.85.14-.05,0-.11-.01-.16-.02-.69.07-1.31-.31-1.71-.85-.31-.36-.49-.81-.49-1.35s.19-1,.49-1.36c.41-.54,1.02-.91,1.71-.85.05,0,.11-.01.16-.02.3-.03.59.03.85.14,1.01.21,1.82.95,1.82,2.09Z"/>
  <path class="st4" d="M117,203.59c.09,1.13-1.02,2.09-2.09,2.09s-2.18-.95-2.09-2.09c.05-.52.05-1.05.37-1.5.89-1.28,2.55-1.28,3.45,0,.31.45.31.98.36,1.5Z"/>
  <path class="st4" d="M126.12,199.49c0,1.37-1.25,1.95-2.43,1.99-1.08.04-1.99-.93-1.99-1.99s.91-2.02,1.99-1.99c1.18.04,2.43.62,2.43,1.99Z"/>
  <path class="st4" d="M133.34,204.71c-.13.03-.25.05-.38.07-1.16.2-2.33-.49-2.33-1.77s1.17-1.97,2.33-1.77c.13.02.25.04.38.07,1.69.29,1.69,3.12,0,3.41Z"/>
  <path class="st4" d="M147.57,196.57c-.03.09-.19.33-.28.46-.24.88-.95,1.55-1.93,1.55s-2.13-.92-2.01-2.02c.11-1.17.74-2.61,2.06-2.82.87-.13,1.7.07,2.17.88.39.65.28,1.29,0,1.94Z"/>
  <path class="st4" d="M171.1,190.86c-.55.33-1.13.29-1.75.3-2.09.03-2.09-3.27,0-3.24.61,0,1.2-.03,1.75.3.99.6.99,2.03,0,2.64Z"/>
  <path class="st4" d="M181.06,192.12c-1.06,0-1.06-1.65,0-1.65s1.06,1.65,0,1.65Z"/>
  <path class="st4" d="M162.31,196.37c-.42.23-.69.62-.89,1.07-.11.23-.04-.01-.1.22,0,.02-.03.19-.04.23-.02.15-.03.3-.08.44-.03.07-.05.12-.07.17-.5,1.25-2.15,1.02-2.3-.32-.05-.43.09-.81.29-1.19.09-.18.23-.55.39-.83.4-.71.95-1.35,1.67-1.73.2-.1.38-.13.57-.13.01,0,.03,0,.05,0,.97.07,1.58,1.47.53,2.07Z"/>
  <path class="st4" d="M172.86,198.03c-1.89,0-1.89-2.94,0-2.94s1.89,2.94,0,2.94Z"/>
  <path class="st4" d="M168.18,196.72c-1.71,0-1.71-2.66,0-2.66s1.71,2.66,0,2.66Z"/>
  <path class="st4" d="M189.2,183.1c0,.85-.78,1.8-1.7,1.7-.63-.07-1.2-.11-1.64-.62-.57-.66-.57-1.49,0-2.15.44-.51,1.01-.56,1.64-.63.92-.1,1.7.85,1.7,1.7Z"/>
  <path class="st4" d="M197.45,188.49c-2.41,0-2.41-3.74,0-3.74s2.41,3.74,0,3.74Z"/>
  <path class="st4" d="M209.74,182.07c-1.68,0-1.68-2.61,0-2.61s1.68,2.61,0,2.61Z"/>
  <path class="st4" d="M219.11,179.13c-2.43,0-2.43-3.76,0-3.76s2.42,3.76,0,3.76Z"/>
  <path class="st4" d="M226.72,181.99c-2.33,0-2.33-3.62,0-3.62s2.34,3.62,0,3.62Z"/>
  <path class="st4" d="M235.5,175.76c-.93,0-1.65-.92-1.39-1.82.04-.13.07-.25.11-.37.36-1.27,2.21-1.27,2.57,0,.03.13.07.25.11.37.25.9-.46,1.82-1.39,1.82Z"/>
  <path class="st4" d="M239.6,173.92c-1.75,0-1.75-2.72,0-2.72s1.75,2.72,0,2.72Z"/>
  <path class="st4" d="M212.08,186.07c-.05,0-.05-.08,0-.08s.05.08,0,.08Z"/>
  <path class="st4" d="M198.03,181.53c-.99,0-.99-1.53,0-1.53s.99,1.53,0,1.53Z"/>
  <path class="st4" d="M206.19,188.37c0,.93-.78,1.71-1.71,1.71s-1.71-.78-1.71-1.71.78-1.71,1.71-1.71,1.71.78,1.71,1.71Z"/>
  <path class="st4" d="M187.08,194.81c0,1.05-.88,1.92-1.92,1.92s-1.92-.87-1.92-1.92.87-1.92,1.92-1.92,1.92.87,1.92,1.92Z"/>
  <path class="st4" d="M141.56,206.52c0,2.05-2.74,2.77-3.8,1.17-.63-.63-.63-1.71,0-2.34,1.06-1.6,3.8-.89,3.8,1.17Z"/>
  <path class="st4" d="M148.05,205.01c-.47.8-1.26.96-2.11,1.06-1.03.11-1.89-.95-1.89-1.89,0-.86.72-1.8,1.62-1.88t0-.01c.44-.3,1.26-.33,1.69,0,.86.67,1.27,1.72.68,2.73Z"/>
  <path class="st4" d="M134.22,194c-.05.16-.13.31-.23.44-.11,1.75-3.21,1.68-3.06-.22.08-1.02.61-2.19,1.85-2.04.9.11,1.7.83,1.43,1.82Z"/>
  <path class="st4" d="M120.77,211.37c-.6,0-1.05-.39-1.25-.9-.05-.04-.09-.07-.14-.11-.01,0-.08-.06-.21-.17-.13-.13-.22-.29-.27-.47-.17-.51.13-.95.56-1.19.05-.03.11-.08.22-.16.2-.12.42-.18.66-.18.32,0,.6.13.89.27.44.21.77.75.83,1.21.12.85-.35,1.7-1.29,1.7Z"/>
  <path class="st4" d="M109.06,214.93c-1.79,0-1.79-2.78,0-2.78s1.78,2.78,0,2.78Z"/>
  <path class="st4" d="M100.23,204.76c.01-.13.03-.27.05-.4.19-1.51,2.15-1.51,2.34,0,.02.13.04.27.05.4.2,1.57-2.64,1.57-2.44,0Z"/>
  <path class="st4" d="M90.91,213.37c-.29.03-.6.05-.85.19-.27.15-.29.37-.43.6-.31.53.08,1.21.69,1.21.36,0,.61-.23.71-.51.83-.09.79-1.57-.13-1.49Z"/>
  <path class="st4" d="M89.5,219.97c-.26.94-1.13,1.6-2.11,1.6s-1.85-.66-2.1-1.6c-.27-.99.19-1.9,1-2.46.03-.02.05-.03.08-.05-.04.04-.08.08-.12.12.71-.52,1.57-.52,2.28,0-.03-.04-.07-.08-.11-.12.02.02.05.03.07.05.81.56,1.28,1.47,1.01,2.46Z"/>
  <path class="st4" d="M77.9,220.59c-.09.36-.25.71-.43,1.03-.1.19-.17.47-.13.11-.1.9-.68,1.66-1.66,1.66-.86,0-1.71-.75-1.66-1.66.04-.55.17-.98.39-1.48,0-.01.12-.32.13-.32.03-.08.05-.16.07-.25.19-.91,1.24-1.42,2.09-1.18.9.24,1.42,1.19,1.19,2.09Z"/>
  <path class="st4" d="M58.71,263.16c-2.09,0-2.09-3.24,0-3.24s2.09,3.24,0,3.24Z"/>
  <path class="st4" d="M64.55,258.03c-.09,1.01-1.03,2-2.21,1.67-1.17-.32-1.57-1.75-.96-2.66.47-1.13,1.91-1.46,2.88-.61.45.39.52,1.07.29,1.6Z"/>
  <path class="st4" d="M69.84,255.5c-2.02,0-2.02-3.13,0-3.13s2.01,3.13,0,3.13Z"/>
  <path class="st4" d="M75.34,258c-.69-.69-1.12-1.71-1.35-2.73-1.03-.92-.65-3.08,1.12-3.08,1.51,0,2,1.59,1.47,2.62.21.7.57,1.35.67,2.08.14,1.05-1.01,1.99-1.91,1.11Z"/>
  <path class="st4" d="M87.28,254.51c-.06.06-.11.13-.17.19-.07.13-.17.26-.31.38-.06.05-.11.11-.17.16-.59.65-1.69.59-2.29,0-.65-.65-.59-1.63,0-2.29.05-.06.1-.11.15-.17.12-.13.25-.23.38-.31.07-.05.13-.11.19-.17,1.51-1.35,3.56.7,2.21,2.21Z"/>
  <path class="st4" d="M92.08,252.75c-2.25,0-2.25-3.49,0-3.49s2.25,3.49,0,3.49Z"/>
  <path class="st4" d="M100.38,255.26c-.91.49-2.17-.23-2.17-1.33s1.26-1.82,2.17-1.32c1.29.21,1.29,2.43,0,2.65Z"/>
  <path class="st4" d="M108.47,251.55c-1.23,0-1.8-1.09-1.65-2.17.05-.35.18-.63.36-.89.39-1.13,2.19-1.13,2.59,0,.18.26.31.53.36.89.15,1.08-.43,2.17-1.65,2.17Z"/>
  <path class="st4" d="M119.01,247.79c-1.89,0-1.89-2.94,0-2.94s1.89,2.94,0,2.94Z"/>
  <path class="st4" d="M124.26,247.16c-.23.17-.51.25-.84.16-.54-.15-.87-.73-.71-1.27.15-.55.72-.87,1.26-.72.14.03.24.1.33.17.77.34.76,1.34-.04,1.65Z"/>
  <path class="st4" d="M133.64,241.67c-2.3,0-2.3-3.57,0-3.57s2.3,3.57,0,3.57Z"/>
  <path class="st4" d="M141.25,238.61c-.36-.52-.79-.62-1.33-.83-.97-.39-1.99.58-1.99,1.52,0,.86.85,1.72,1.74,1.57.59.22,1.28.11,1.61-.56.26-.53.34-1.17-.02-1.7ZM138.77,240.13c-.03-.08-.05-.15-.08-.23.03.11.08.19.13.27-.02-.01-.03-.03-.05-.05Z"/>
  <path class="st4" d="M141.21,244.57c-.03,1.38-.72,2.4-2.15,2.58-.79.1-1.64-.79-1.57-1.56.04-.4.13-.7.29-.99v-.03c-.03-2.21,3.48-2.21,3.44,0Z"/>
  <path class="st4" d="M132.86,247.69c-.17-.21-.35-.43-.53-.64-.16-.19.08-.43.27-.27.21.17.43.35.64.53.27.23-.16.66-.39.39Z"/>
  <path class="st4" d="M125.13,241.48c-1.01.76-1.98,2.01-3.44,1.63-.46-.12-.81-.66-.64-1.13.28-.79.82-1.31,1.33-1.94.17-.21.37-.4.57-.59.15-.51.56-.94,1.09-1.09.25-.07.55-.07.82-.09,1.97-.14,2.06,3.04.27,3.2Z"/>
  <path class="st4" d="M115.82,253.34c-.89.24-1.73-.6-1.49-1.49.24-.86,1.09-1.09,1.77-.72.93.5.69,1.93-.29,2.21Z"/>
  <path class="st4" d="M154.72,240.11c-2.57,0-2.57-3.98,0-3.98s2.56,3.98,0,3.98Z"/>
  <path class="st4" d="M170.12,233.44c0,.16-.02.32-.03.47-.05,1.04-.83,1.91-1.91,1.91s-1.85-.87-1.91-1.91c0-.15-.02-.31-.03-.47-.06-1.05.92-1.93,1.93-1.93s1.99.88,1.93,1.93Z"/>
  <path class="st4" d="M175.79,235.76c-1.18,0-1.89-1.09-1.67-2.19.06-.3.11-.57.29-.84.65-1.03,2.1-1.03,2.76,0,.17.27.23.54.29.84.23,1.09-.48,2.19-1.66,2.19Z"/>
  <path class="st4" d="M178.71,228.75c-2.25,0-2.25-3.48,0-3.48s2.25,3.48,0,3.48Z"/>
  <path class="st4" d="M184.97,229.15c-.89-.83-1.91-1.5-2.83-2.29-1.53-.63-1.31-3.36.67-3.36.71,0,1.19.34,1.45.81.97.89,2.07,1.61,3.03,2.5,1.56,1.45-.77,3.76-2.33,2.33Z"/>
  <path class="st4" d="M194.16,229.3c-.12.12-.31.24-.49.34-.39.64-1.17,1.01-1.95.8-.97-.27-1.39-1.21-1.22-2.14.25-1.28,1.74-2.09,2.96-1.65.49.17,1.01.55,1.11,1.11.09.58.03,1.11-.41,1.54Z"/>
  <path class="st4" d="M201.54,223.78c-1.87,0-1.87-2.91,0-2.91s1.87,2.91,0,2.91Z"/>
  <path class="st4" d="M169.67,96.07c-5.85,9.17-18.16,13.62-28.43,9.49-9.11-3.68-11.24-13.6-8.05-22.09.17-.46.96-.43.91.12-.66,7.81,2.05,16.3,10.57,18.35,9.05,2.17,16.77-2.27,24.48-6.37.31-.17.72.18.51.51Z"/>
</svg>